<?xml version="1.0" encoding="UTF-8" standalone="no"?>
<!DOCTYPE svg PUBLIC "-//W3C//DTD SVG 1.1//EN" "http://www.w3.org/Graphics/SVG/1.1/DTD/svg11.dtd">
<svg xmlns="http://www.w3.org/2000/svg" version="1.1" viewBox="0 0 998 736">
<path fill="#00ff00" d="
  M 328.83 123.75
  C 320.12 114.32 310.23 106.07 301.64 96.60
  Q 288.00 81.54 274.49 66.33
  C 271.71 63.20 270.78 60.71 272.47 56.87
  Q 272.66 56.42 273.14 56.39
  Q 277.18 56.14 279.29 57.47
  Q 346.39 99.60 414.11 140.71
  Q 414.62 141.02 415.06 140.63
  L 425.35 131.38
  Q 425.82 130.96 425.72 130.34
  Q 421.93 105.94 418.40 81.58
  Q 417.67 76.52 417.96 72.03
  A 1.58 1.58 0.0 0 1 420.04 70.64
  C 422.85 71.57 425.26 72.68 427.69 74.60
  Q 439.91 84.22 451.99 94.02
  C 454.34 95.93 454.89 96.25 457.80 94.72
  Q 471.58 87.45 485.40 80.31
  C 490.57 77.64 495.40 75.61 500.58 74.64
  A 1.44 1.44 0.0 0 1 502.24 76.39
  L 495.93 102.51
  A 0.89 0.89 0.0 0 0 497.13 103.54
  Q 530.65 90.05 564.91 76.73
  C 567.26 75.82 569.38 76.33 571.81 75.94
  A 1.63 1.63 0.0 0 1 573.66 77.88
  Q 571.33 89.07 567.98 99.95
  Q 567.47 101.59 569.15 101.96
  Q 611.26 111.19 654.34 120.42
  C 657.91 121.18 661.30 122.34 664.79 123.41
  A 0.36 0.36 0.0 0 1 664.97 123.97
  L 649.25 145.46
  A 0.64 0.63 -55.8 0 0 649.42 146.37
  Q 684.81 168.64 720.16 190.81
  C 722.35 192.18 724.62 194.57 727.17 196.02
  A 1.82 1.82 0.0 0 1 727.82 198.56
  L 711.37 225.11
  A 0.89 0.89 0.0 0 0 711.64 226.32
  Q 759.17 257.11 806.87 287.86
  Q 817.08 294.44 826.92 301.65
  A 1.14 1.14 0.0 0 1 826.77 303.58
  Q 825.30 304.35 823.52 304.63
  Q 809.53 306.82 796.57 308.91
  A 2.03 2.02 -6.9 0 0 794.87 311.07
  Q 798.50 357.52 801.82 402.82
  Q 802.30 409.27 802.12 415.50
  A 0.63 0.62 10.3 0 1 801.29 416.07
  C 792.86 413.06 786.37 406.23 779.93 400.35
  A 0.58 0.57 26.3 0 0 778.97 400.67
  Q 773.44 432.93 767.98 465.14
  C 765.11 482.08 760.37 498.72 756.22 515.37
  C 755.46 518.41 753.68 520.15 752.00 522.67
  A 1.14 1.14 0.0 0 1 750.24 522.84
  C 743.20 515.73 738.24 505.46 733.20 496.71
  A 1.11 1.11 0.0 0 0 731.51 496.42
  Q 707.89 516.87 683.88 537.27
  C 680.87 539.83 680.12 542.68 678.98 546.24
  Q 672.97 565.09 661.48 597.45
  Q 660.63 599.84 658.30 599.27
  C 645.45 596.13 632.20 590.47 620.02 586.06
  A 1.83 1.82 -73.3 0 0 617.63 587.35
  Q 608.91 623.10 600.48 658.45
  Q 598.63 666.20 593.39 671.24
  A 1.46 1.46 0.0 0 1 591.12 670.93
  Q 589.14 667.65 588.23 664.37
  Q 568.56 593.73 548.94 524.34
  Q 548.36 522.26 547.21 524.09
  Q 535.96 542.07 524.95 559.44
  Q 523.63 561.52 518.35 563.77
  Q 517.93 563.95 517.73 563.53
  Q 516.19 560.33 515.68 557.51
  Q 509.66 524.21 497.97 457.50
  C 496.85 451.09 494.46 439.63 493.75 431.73
  C 493.12 424.73 495.64 420.34 498.82 414.28
  Q 513.95 385.46 529.23 356.71
  C 531.71 352.05 531.92 349.42 529.67 344.36
  Q 516.90 315.62 503.57 285.43
  A 0.33 0.33 0.0 0 0 503.03 285.34
  Q 497.66 290.98 492.07 296.59
  C 486.40 302.28 483.10 302.55 475.88 304.16
  Q 453.70 309.11 431.50 314.02
  Q 429.45 314.47 427.80 315.80
  Q 401.46 337.17 375.31 358.77
  Q 374.92 359.09 374.42 359.01
  Q 355.38 355.80 336.50 351.74
  Q 331.93 350.76 329.77 348.49
  Q 321.89 340.20 314.54 331.46
  C 311.69 328.08 312.67 312.72 313.12 308.23
  Q 313.17 307.73 313.51 307.35
  Q 330.58 288.23 347.50 269.01
  Q 349.86 266.33 351.35 263.08
  Q 361.88 240.17 372.06 217.11
  Q 372.81 215.41 373.17 213.73
  C 375.52 202.58 377.12 191.23 378.99 180.00
  Q 379.26 178.39 377.86 176.88
  Q 353.36 150.30 328.83 123.75
  Z
  M 302.50 83.26
  A 0.19 0.19 0.0 0 0 302.27 83.46
  C 302.31 83.92 302.81 84.60 303.32 84.64
  Q 303.77 84.69 303.62 84.26
  Q 303.33 83.47 302.50 83.26
  Z
  M 432.87 112.46
  L 439.66 96.67
  A 0.75 0.75 0.0 0 0 439.43 95.77
  L 428.98 87.76
  Q 428.45 87.36 428.55 88.01
  L 432.15 112.37
  Q 432.35 113.68 432.87 112.46
  Z
  M 558.20 100.84
  A 0.38 0.38 0.0 0 0 558.31 100.66
  L 561.70 88.39
  A 0.38 0.38 0.0 0 0 561.19 87.93
  L 496.18 113.88
  A 0.38 0.38 0.0 0 0 495.95 114.35
  L 506.26 147.50
  A 0.38 0.38 0.0 0 0 506.88 147.67
  L 558.20 100.84
  Z
  M 476.35 109.70
  C 479.34 109.55 485.21 108.04 485.99 104.50
  Q 487.67 96.85 489.69 89.30
  A 0.33 0.32 84.2 0 0 489.23 88.92
  L 464.38 101.27
  A 0.31 0.30 -40.8 0 0 464.34 101.79
  L 475.41 109.43
  Q 475.83 109.73 476.35 109.70
  Z
  M 346.54 110.19
  L 313.76 89.98
  A 0.36 0.35 11.8 0 0 313.22 90.33
  L 313.98 95.72
  Q 314.05 96.22 314.42 96.56
  C 317.74 99.58 323.34 106.07 327.67 106.90
  Q 337.15 108.72 346.39 110.56
  A 0.20 0.20 0.0 0 0 346.54 110.19
  Z
  M 447.27 102.43
  L 437.00 126.57
  A 0.83 0.82 15.2 0 0 437.66 127.71
  L 464.07 131.01
  A 0.84 0.83 -86.6 0 0 465.00 130.18
  L 465.00 114.24
  Q 465.00 113.72 464.58 113.42
  C 460.97 110.86 457.12 107.31 452.88 105.98
  Q 449.83 105.03 448.02 102.36
  A 0.43 0.43 0.0 0 0 447.27 102.43
  Z
  M 566.85 148.29
  Q 603.36 145.09 638.66 141.20
  C 642.68 140.76 646.85 133.01 648.98 129.74
  A 0.86 0.85 22.6 0 0 648.44 128.44
  L 568.09 111.03
  A 1.73 1.72 6.1 0 0 566.00 112.71
  L 566.00 147.51
  A 0.78 0.78 0.0 0 0 566.85 148.29
  Z
  M 557.00 115.79
  A 0.53 0.53 0.0 0 0 556.11 115.40
  L 519.19 149.08
  A 0.53 0.53 0.0 0 0 519.55 150.00
  L 556.47 150.00
  A 0.53 0.53 0.0 0 0 557.00 149.47
  L 557.00 115.79
  Z
  M 474.00 172.32
  A 0.37 0.37 0.0 0 0 474.61 172.60
  L 497.94 152.12
  A 0.37 0.37 0.0 0 0 498.05 151.73
  L 487.01 116.52
  A 0.37 0.37 0.0 0 0 486.54 116.28
  L 474.25 120.42
  A 0.37 0.37 0.0 0 0 474.00 120.77
  L 474.00 172.32
  Z
  M 366.23 123.99
  L 337.71 118.05
  A 0.42 0.42 0.0 0 0 337.28 118.71
  Q 339.04 121.11 341.01 123.24
  Q 354.97 138.29 368.95 153.31
  Q 370.26 154.71 371.76 156.02
  Q 372.23 156.43 372.78 156.15
  L 376.35 154.34
  Q 376.93 154.05 376.71 153.43
  L 366.47 124.20
  Q 366.41 124.03 366.23 123.99
  Z
  M 402.98 145.57
  A 0.46 0.46 0.0 0 0 403.09 144.73
  L 379.16 130.43
  A 0.46 0.46 0.0 0 0 378.49 130.98
  L 385.31 150.11
  A 0.46 0.46 0.0 0 0 385.86 150.39
  L 402.98 145.57
  Z
  M 446.56 198.81
  Q 454.87 189.99 462.92 180.92
  Q 463.53 180.23 464.76 178.29
  Q 465.00 177.92 465.00 177.48
  L 465.00 141.04
  A 0.90 0.89 -86.4 0 0 464.22 140.15
  L 434.62 136.28
  Q 434.07 136.21 433.66 136.58
  L 420.11 148.50
  Q 419.63 148.92 419.88 149.51
  L 442.16 201.97
  Q 442.43 202.59 442.96 202.18
  Q 444.51 200.99 446.56 198.81
  Z
  M 630.88 198.70
  Q 634.42 176.85 637.63 156.27
  Q 638.04 153.62 638.05 151.20
  A 0.52 0.51 87.5 0 0 637.49 150.68
  L 576.78 156.48
  A 0.81 0.81 0.0 0 0 576.37 157.93
  L 630.66 198.79
  Q 630.84 198.93 630.88 198.70
  Z
  M 390.04 176.64
  Q 400.82 186.07 411.28 194.25
  C 415.83 197.81 424.69 198.62 430.31 199.86
  A 0.56 0.56 0.0 0 0 430.95 199.09
  L 412.83 156.48
  A 0.84 0.84 0.0 0 0 411.50 156.18
  L 390.04 175.31
  A 0.89 0.89 0.0 0 0 390.04 176.64
  Z
  M 383.60 168.62
  L 395.56 157.87
  Q 396.34 157.17 395.31 157.34
  Q 386.73 158.78 379.30 163.19
  A 0.79 0.78 -36.2 0 0 379.11 164.39
  L 382.88 168.58
  Q 383.22 168.96 383.60 168.62
  Z
  M 522.74 216.86
  L 551.41 160.37
  A 0.95 0.94 13.3 0 0 550.56 159.00
  L 505.53 159.00
  Q 505.08 159.00 504.71 159.23
  C 503.87 159.75 502.85 160.22 502.13 160.85
  Q 490.06 171.29 477.26 182.70
  A 0.61 0.60 -47.7 0 0 477.30 183.64
  L 522.09 217.01
  Q 522.51 217.33 522.74 216.86
  Z
  M 563.23 159.59
  A 0.68 0.68 0.0 0 0 562.21 159.82
  L 532.90 217.13
  A 0.68 0.68 0.0 0 0 533.60 218.11
  L 622.09 205.48
  A 0.68 0.68 0.0 0 0 622.41 204.27
  L 563.23 159.59
  Z
  M 646.25 159.76
  Q 642.72 181.60 639.75 201.30
  Q 639.51 202.87 639.82 204.31
  Q 639.92 204.81 640.41 204.94
  L 690.48 218.91
  Q 691.42 219.18 691.43 218.20
  C 691.44 217.09 689.83 215.47 689.34 214.82
  Q 669.60 188.86 649.77 162.97
  Q 648.29 161.05 646.94 159.56
  Q 646.39 158.95 646.25 159.76
  Z
  M 704.02 218.77
  A 0.31 0.31 0.0 0 0 704.54 218.74
  L 716.16 199.60
  A 0.31 0.31 0.0 0 0 716.06 199.18
  L 665.93 167.66
  A 0.31 0.31 0.0 0 0 665.52 168.11
  L 704.02 218.77
  Z
  M 402.10 199.79
  A 0.59 0.59 0.0 0 0 402.25 198.79
  L 387.93 187.28
  A 0.59 0.59 0.0 0 0 386.98 187.64
  L 383.84 206.21
  A 0.59 0.59 0.0 0 0 384.64 206.85
  L 402.10 199.79
  Z
  M 468.24 189.19
  L 454.22 204.38
  A 0.35 0.34 22.2 0 0 454.47 204.96
  Q 456.14 205.01 457.98 205.35
  Q 478.42 209.08 499.33 213.09
  A 0.57 0.57 0.0 0 0 499.78 212.08
  L 469.23 189.10
  Q 468.69 188.70 468.24 189.19
  Z
  M 415.85 207.03
  Q 412.40 214.32 418.08 219.71
  A 0.55 0.55 0.0 0 0 418.77 219.77
  L 433.18 210.22
  A 0.42 0.42 0.0 0 0 433.03 209.46
  L 417.21 206.34
  Q 416.26 206.16 415.85 207.03
  Z
  M 382.03 217.57
  L 364.96 255.49
  A 0.24 0.24 0.0 0 0 365.32 255.79
  C 379.67 245.43 394.68 236.32 409.29 226.36
  A 1.67 1.67 0.0 0 0 409.65 223.93
  Q 404.60 217.70 406.09 209.73
  Q 406.40 208.05 404.81 208.67
  L 382.10 217.50
  A 0.13 0.13 0.0 0 0 382.03 217.57
  Z
  M 511.60 224.94
  C 510.62 224.00 509.55 224.30 508.56 224.12
  Q 477.71 218.22 446.84 212.36
  Q 446.33 212.26 445.91 212.56
  L 423.35 228.14
  Q 422.77 228.55 423.16 229.13
  L 432.39 243.07
  Q 432.78 243.66 433.47 243.51
  L 511.98 225.47
  A 0.20 0.20 0.0 0 0 511.99 225.08
  Q 511.83 225.03 511.66 224.97
  Q 511.63 224.96 511.60 224.94
  Z
  M 583.01 318.43
  L 625.73 214.36
  A 0.22 0.21 7.1 0 0 625.50 214.07
  Q 582.59 220.35 539.70 226.51
  Q 536.18 227.01 532.63 227.02
  A 0.49 0.49 0.0 0 0 532.20 227.74
  L 582.04 318.49
  Q 582.59 319.48 583.01 318.43
  Z
  M 661.98 298.05
  Q 716.31 299.99 769.18 301.43
  Q 773.85 301.55 778.58 302.04
  A 0.37 0.37 0.0 0 0 778.87 301.40
  Q 745.20 271.48 711.48 241.40
  C 708.04 238.33 704.68 235.59 701.72 232.03
  A 2.76 2.76 0.0 0 0 700.31 231.12
  L 642.51 214.98
  Q 641.14 214.60 641.49 215.97
  Q 651.12 254.29 660.81 293.52
  C 661.10 294.69 661.05 296.28 661.32 297.51
  Q 661.44 298.03 661.98 298.05
  Z
  M 632.63 221.96
  C 619.42 253.79 606.35 285.67 593.32 317.57
  Q 592.57 319.42 592.04 321.37
  A 0.54 0.54 0.0 0 0 592.73 322.02
  L 652.98 301.45
  A 0.40 0.40 0.0 0 0 653.24 300.97
  L 633.53 222.03
  A 0.48 0.47 49.3 0 0 632.63 221.96
  Z
  M 482.40 293.11
  C 488.65 287.27 495.01 281.21 500.70 274.84
  Q 502.50 272.81 503.45 270.14
  Q 509.69 252.48 515.90 235.06
  A 0.73 0.72 -86.8 0 0 515.06 234.11
  L 435.35 252.44
  A 1.52 1.50 -6.2 0 0 434.18 253.88
  L 433.31 302.99
  Q 433.28 304.30 434.56 304.01
  L 481.58 293.54
  Q 482.05 293.44 482.40 293.11
  Z
  M 357.80 308.27
  L 424.43 304.93
  Q 425.02 304.90 425.02 304.31
  Q 424.99 278.94 425.02 253.56
  C 425.03 251.08 425.39 249.74 424.04 247.59
  Q 419.88 240.95 415.27 234.55
  Q 414.94 234.10 414.42 234.31
  Q 413.08 234.84 411.46 235.97
  Q 395.16 247.30 362.29 269.44
  Q 361.94 269.68 361.88 270.10
  L 356.87 307.27
  A 0.89 0.89 0.0 0 0 357.80 308.27
  Z
  M 522.59 244.07
  C 520.62 249.39 509.58 276.44 511.17 280.03
  Q 522.13 304.67 533.07 329.36
  Q 533.40 330.12 533.73 329.35
  C 534.43 327.70 533.40 325.59 533.25 324.32
  Q 528.43 284.66 523.36 245.03
  C 523.33 244.77 523.00 244.25 522.83 244.03
  A 0.14 0.14 0.0 0 0 522.59 244.07
  Z
  M 545.61 342.86
  L 574.89 326.47
  Q 575.62 326.06 575.22 325.33
  C 561.40 300.08 546.60 275.01 533.87 249.27
  Q 532.87 247.26 533.15 249.49
  L 544.60 342.36
  A 0.68 0.67 -18.2 0 0 545.61 342.86
  Z
  M 758.81 271.14
  C 769.01 280.12 779.08 289.24 789.26 298.23
  C 792.72 301.29 798.97 299.51 802.65 298.84
  Q 805.65 298.29 803.10 296.63
  L 748.79 261.43
  Q 746.55 259.97 748.50 261.79
  Q 753.63 266.58 758.81 271.14
  Z
  M 332.64 337.85
  A 0.72 0.72 0.0 0 0 333.84 337.64
  Q 339.38 324.11 346.36 310.91
  Q 347.69 308.39 348.05 305.64
  Q 349.57 294.00 351.13 281.66
  Q 351.37 279.75 349.76 280.79
  Q 348.23 281.78 346.18 284.20
  Q 334.80 297.66 323.07 310.82
  C 321.19 312.93 321.97 322.29 322.03 325.25
  A 2.54 2.50 23.8 0 0 322.68 326.88
  L 332.64 337.85
  Z
  M 674.38 307.82
  L 732.02 344.55
  Q 732.93 345.12 733.77 344.45
  L 774.96 311.43
  A 0.33 0.32 -60.8 0 0 774.80 310.85
  Q 772.74 310.59 770.74 310.53
  C 740.10 309.60 709.47 308.40 678.82 307.72
  Q 676.57 307.67 674.56 307.36
  A 0.25 0.25 0.0 0 0 674.38 307.82
  Z
  M 595.18 332.50
  Q 645.16 370.28 695.40 407.73
  Q 696.14 408.28 696.01 407.37
  C 695.84 406.11 694.74 404.36 694.42 403.50
  Q 676.71 356.69 658.97 309.90
  A 0.75 0.75 0.0 0 0 658.03 309.46
  L 594.30 331.16
  Q 594.06 331.24 594.12 331.49
  C 594.30 332.21 594.75 332.17 595.18 332.50
  Z
  M 341.63 343.73
  Q 356.55 346.37 369.48 349.02
  C 371.16 349.37 372.19 349.24 373.45 348.20
  Q 393.68 331.49 414.11 315.14
  A 0.24 0.24 0.0 0 0 413.95 314.71
  L 353.69 317.25
  Q 353.22 317.27 353.02 317.70
  L 341.25 342.99
  A 0.53 0.52 -72.3 0 0 341.63 343.73
  Z
  M 739.75 352.78
  L 791.88 398.49
  Q 792.61 399.13 792.54 398.16
  L 786.16 315.56
  A 0.55 0.55 0.0 0 0 785.27 315.18
  L 739.78 351.56
  A 0.80 0.80 0.0 0 0 739.75 352.78
  Z
  M 711.32 421.45
  Q 732.41 439.21 753.20 456.30
  A 0.55 0.55 0.0 0 0 754.09 455.75
  L 729.58 354.40
  Q 729.43 353.78 728.88 353.43
  L 673.03 317.96
  A 0.60 0.60 0.0 0 0 672.14 318.68
  Q 690.45 367.08 708.94 415.81
  Q 709.59 417.54 710.03 419.32
  Q 710.15 419.78 710.37 420.21
  Q 710.80 421.02 711.32 421.45
  Z
  M 609.20 444.60
  Q 609.27 444.81 609.36 445.05
  A 0.19 0.19 0.0 0 0 609.72 444.93
  L 580.63 335.29
  A 0.94 0.94 0.0 0 0 579.27 334.71
  L 546.38 352.92
  Q 545.83 353.23 546.02 353.83
  Q 546.55 355.46 547.78 357.21
  Q 578.29 400.77 608.76 444.35
  Q 608.82 444.44 608.91 444.47
  Q 609.03 444.51 609.15 444.55
  Q 609.19 444.56 609.20 444.60
  Z
  M 697.99 421.96
  A 0.31 0.31 0.0 0 0 698.02 421.45
  L 592.52 342.38
  A 0.31 0.31 0.0 0 0 592.04 342.70
  L 624.12 463.61
  A 0.31 0.31 0.0 0 0 624.57 463.80
  L 697.99 421.96
  Z
  M 761.75 447.00
  Q 766.36 420.30 770.94 393.77
  A 1.89 1.86 26.2 0 0 770.34 392.05
  L 742.96 367.82
  A 0.41 0.40 -76.1 0 0 742.30 368.22
  L 761.50 447.67
  Q 761.58 447.99 761.77 447.73
  Q 762.01 447.39 761.75 447.00
  Z
  M 508.61 419.69
  L 541.37 418.79
  Q 541.88 418.78 541.93 418.27
  Q 542.13 416.58 541.80 414.49
  Q 538.10 391.50 534.46 368.41
  A 0.50 0.49 -35.7 0 0 533.53 368.26
  L 507.46 417.86
  Q 506.47 419.75 508.61 419.69
  Z
  M 553.19 421.06
  Q 578.39 437.23 603.20 454.27
  A 0.46 0.46 0.0 0 0 603.84 453.63
  L 544.45 368.78
  A 0.41 0.41 0.0 0 0 543.71 369.08
  Q 547.49 392.82 551.42 416.73
  C 551.71 418.48 551.54 420.00 553.19 421.06
  Z
  M 521.47 533.76
  L 543.03 429.71
  Q 543.38 428.02 541.65 428.00
  Q 522.15 427.83 502.71 429.11
  A 0.47 0.47 0.0 0 0 502.28 429.67
  Q 511.31 481.02 520.29 532.59
  Q 520.47 533.64 521.18 533.92
  Q 521.42 534.01 521.47 533.76
  Z
  M 611.01 470.30
  L 552.82 431.49
  A 0.24 0.24 0.0 0 0 552.45 431.70
  L 554.59 499.28
  A 0.68 0.68 0.0 0 0 555.58 499.86
  L 610.94 471.57
  A 0.74 0.74 0.0 0 0 611.01 470.30
  Z
  M 628.50 472.16
  A 0.31 0.31 0.0 0 0 628.42 472.64
  L 675.71 524.13
  A 0.31 0.31 0.0 0 0 676.24 523.99
  L 698.14 433.13
  A 0.31 0.31 0.0 0 0 697.69 432.78
  L 628.50 472.16
  Z
  M 706.46 438.17
  Q 696.65 477.91 687.25 517.52
  C 686.97 518.70 685.94 520.71 686.01 522.42
  Q 686.04 523.21 686.63 522.70
  L 726.41 488.83
  A 1.17 1.16 -30.9 0 0 726.75 487.52
  Q 717.25 462.96 707.43 438.61
  C 707.36 438.43 707.04 438.15 706.89 438.03
  A 0.27 0.26 26.9 0 0 706.46 438.17
  Z
  M 748.38 504.32
  A 1.04 1.04 0.0 0 0 749.64 503.57
  Q 753.28 489.12 756.80 474.75
  C 757.73 470.94 756.33 471.13 754.05 469.22
  Q 736.23 454.30 718.67 439.43
  A 0.43 0.43 0.0 0 0 717.99 439.91
  Q 725.80 460.33 734.03 480.49
  C 735.66 484.46 744.67 503.39 748.38 504.32
  Z
  M 543.81 471.32
  Q 537.60 501.19 531.18 531.54
  A 0.18 0.18 0.0 0 0 531.50 531.67
  Q 537.57 521.94 543.88 512.06
  C 545.45 509.59 546.54 506.64 546.26 504.00
  Q 544.44 486.90 545.11 469.10
  A 0.54 0.54 0.0 0 0 544.12 468.78
  C 543.92 469.10 543.92 470.76 543.81 471.32
  Z
  M 559.44 508.76
  Q 583.81 537.85 607.91 566.33
  Q 609.22 567.87 610.27 568.74
  Q 610.91 569.25 610.97 568.44
  Q 614.13 526.48 616.86 484.49
  Q 617.02 482.14 617.00 479.70
  A 0.52 0.52 0.0 0 0 616.24 479.24
  L 559.54 508.24
  A 0.34 0.34 0.0 0 0 559.44 508.76
  Z
  M 626.71 484.39
  A 0.33 0.33 0.0 0 0 626.13 484.59
  L 619.89 570.57
  A 0.33 0.33 0.0 0 0 620.41 570.87
  L 672.09 534.43
  A 0.33 0.33 0.0 0 0 672.15 533.93
  L 626.71 484.39
  Z
  M 593.63 647.70
  Q 601.22 615.95 608.77 584.89
  C 609.20 583.11 608.81 581.86 607.70 580.55
  Q 583.10 551.45 558.65 522.38
  A 0.41 0.40 17.1 0 0 557.95 522.75
  L 593.26 647.71
  A 0.19 0.19 0.0 0 0 593.63 647.70
  Z
  M 667.69 548.69
  Q 647.16 563.61 626.25 578.11
  A 0.31 0.30 -52.4 0 0 626.32 578.65
  L 654.55 588.72
  Q 654.91 588.85 655.04 588.48
  L 668.77 548.49
  A 0.34 0.33 2.3 0 0 668.37 548.06
  Q 667.87 548.18 667.69 548.69
  Z"
/>
</svg>
